<?xml version="1.0" encoding="utf-8"?>
<svg fill="#000000" width="400px" height="400px" viewBox="0 0 19 19" role="img" xmlns="http://www.w3.org/2000/svg">
  <title>styled-components icon</title>
  <path d="M16.214 6.762l-.075.391c-.116.741-.074.953.244 1.228l.307.254-.318 1.418c-.19.846-.423 1.555-.571 1.788-.127.201-.275.497-.307.656-.053.19-.233.381-.508.55-.243.138-.72.508-1.058.805-.27.243-.456.392-.557.456l-.33.261c-.106.17-.166.307-.189.411-.023.107-.01.178.024.23.033.05.09.085.168.107a.954.954 0 00.282.023 3 3 0 00.632-.112c.07-.019.125-.037.173-.053.074-.091.245-.263.548-.562.804-.793 1.111-1.227.794-1.11-.117.042-.064-.064.137-.276.424-.413.667-1.037 1.175-2.994.402-1.545.402-1.567.698-1.567.139 0 .532.024.532.024V6.762h-.902z"/>
  <path d="M12.768 10.067c-.292-.002-.92.443-2.8 1.978-.081.193-.088.326-.051.412.024.059.068.1.129.13.06.03.138.048.224.055.171.015.373-.012.536-.044l.11-.025a.386.386 0 01.144-.118c.116-.064.603-.508 1.09-.984.857-.868 1.058-1.26.709-1.387a.24.24 0 00-.09-.017z"/>
  <path d="M14.964 10.67c-.257.007-.72.305-1.513.938-.398.323-.65.497-.785.533l-.524.414c-.197.36-.226.583-.174.706a.25.25 0 00.138.134.644.644 0 00.24.045 2.18 2.18 0 00.58-.085 3.466 3.466 0 00.291-.092l.029-.012.053-.028c.1-.129.33-.372.618-.652.91-.878 1.375-1.502 1.28-1.735-.043-.113-.117-.17-.233-.166z"/>
  <path d="M12.52 12.01c-.074.008-.24.136-.539.398-.432.382-.903.602-1.066.504a3.97 3.97 0 01-.114.024c-.166.033-.373.06-.558.045a.708.708 0 01-.252-.063.337.337 0 01-.168-.17c-.037-.09-.037-.202.005-.345l-.65.534-1.471 1.217V15.867l4.82-3.797a.41.41 0 01.016-.123c.037-.134.035-.202-.023-.196z"/>
  <path d="M14.594 12.772c-.073 0-.195.103-.39.31-.265.283-.682.557-.903.613l-.034.018a2.191 2.191 0 01-.11.042c-.06.02-.138.044-.228.068-.18.049-.404.094-.604.089a.732.732 0 01-.275-.054.344.344 0 01-.184-.18c-.058-.139-.035-.334.092-.611L7.61 16.033v1.205h1.868l3.962-3.112c.103-.114.258-.27.467-.465.56-.519.687-.698.687-.963 0-.206-.023-.31-.096-.31z"/>
  <path d="M15.537 14.722l-.339.338c-.19.18-.529.402-.761.497l-.046.02-.003.005-.01.01c-.009.007-.013.008-.02.011a3.432 3.432 0 01-.282.093 3.058 3.058 0 01-.65.115 1.035 1.035 0 01-.31-.027.364.364 0 01-.218-.144c-.048-.074-.062-.173-.035-.295a1.11 1.11 0 01.095-.25l-3.197 2.526h4.252l.508-.582c.698-.814 1.016-1.396 1.016-1.894z"/>
</svg>
